<svg width="26" height="20" viewBox="0 0 26 20" fill="none" xmlns="http://www.w3.org/2000/svg">
<path d="M14.1665 5.33334C14.1665 2.755 12.0782 0.666672 9.49984 0.666672C6.9215 0.666672 4.83317 2.755 4.83317 5.33334C4.83317 7.91167 6.9215 10 9.49984 10C12.0782 10 14.1665 7.91167 14.1665 5.33334ZM11.8332 5.33334C11.8332 6.61667 10.7832 7.66667 9.49984 7.66667C8.2165 7.66667 7.1665 6.61667 7.1665 5.33334C7.1665 4.05 8.2165 3.00001 9.49984 3.00001C10.7832 3.00001 11.8332 4.05 11.8332 5.33334ZM0.166504 17V19.3333H18.8332V17C18.8332 13.8967 12.6148 12.3333 9.49984 12.3333C6.38484 12.3333 0.166504 13.8967 0.166504 17ZM2.49984 17C2.73317 16.1717 6.34984 14.6667 9.49984 14.6667C12.6382 14.6667 16.2432 16.16 16.4998 17H2.49984ZM22.3332 13.5V10H25.8332V7.66667H22.3332V4.16667H19.9998V7.66667H16.4998V10H19.9998V13.5H22.3332Z" fill="#333333"/>
</svg>
