<svg width="26" height="27" viewBox="0 0 26 27" fill="none" xmlns="http://www.w3.org/2000/svg">
<path d="M12.9167 0.583344C5.78667 0.583344 0 6.37001 0 13.5C0 20.63 5.78667 26.4167 12.9167 26.4167C20.0467 26.4167 25.8333 20.63 25.8333 13.5C25.8333 6.37001 20.0467 0.583344 12.9167 0.583344ZM12.9167 23.8333C7.22042 23.8333 2.58333 19.1963 2.58333 13.5C2.58333 7.80376 7.22042 3.16668 12.9167 3.16668C18.6129 3.16668 23.25 7.80376 23.25 13.5C23.25 19.1963 18.6129 23.8333 12.9167 23.8333ZM5.8125 20.6042L15.5129 16.0963L20.0208 6.39584L10.3204 10.9038L5.8125 20.6042ZM12.9167 12.0792C13.7046 12.0792 14.3375 12.7121 14.3375 13.5C14.3375 14.2879 13.7046 14.9208 12.9167 14.9208C12.1288 14.9208 11.4958 14.2879 11.4958 13.5C11.4958 12.7121 12.1288 12.0792 12.9167 12.0792Z" fill="#AE956B"/>
</svg>
