<svg width="22" height="22" viewBox="0 0 22 22" fill="none" xmlns="http://www.w3.org/2000/svg">
<path fill-rule="evenodd" clip-rule="evenodd" d="M9.66667 2.41667H2.41667V19.3333H9.66667C10.3313 19.3333 10.875 19.8771 10.875 20.5417C10.875 21.2063 10.3313 21.75 9.66667 21.75H2.41667C1.0875 21.75 0 20.6625 0 19.3333V2.41667C0 1.0875 1.0875 0 2.41667 0H9.66667C10.3313 0 10.875 0.54375 10.875 1.20833C10.875 1.87292 10.3313 2.41667 9.66667 2.41667ZM17.9558 7.08084L21.3271 10.4521C21.5567 10.6817 21.5567 11.0683 21.315 11.2979L17.9438 14.6692C17.5692 15.0558 16.9167 14.79 16.9167 14.2463V12.0833H8.45833C7.79375 12.0833 7.25 11.5396 7.25 10.875C7.25 10.2104 7.79375 9.66667 8.45833 9.66667H16.9167V7.50375C16.9165 7.38327 16.9524 7.26549 17.0196 7.16548C17.0867 7.06548 17.1822 6.98779 17.2938 6.94238C17.4054 6.89696 17.528 6.88588 17.646 6.91054C17.7639 6.93521 17.8718 6.9945 17.9558 7.08084Z" fill="#333333"/>
</svg>
