<svg width="26" height="26" viewBox="0 0 26 26" fill="none" xmlns="http://www.w3.org/2000/svg">
<path d="M12.9167 0C5.78667 0 0 5.78667 0 12.9167C0 20.0467 5.78667 25.8333 12.9167 25.8333C20.0467 25.8333 25.8333 20.0467 25.8333 12.9167C25.8333 5.78667 20.0467 0 12.9167 0ZM6.54875 21.0283C7.10417 19.8658 10.4883 18.7292 12.9167 18.7292C15.345 18.7292 18.7421 19.8658 19.2846 21.0283C17.5279 22.4233 15.3192 23.25 12.9167 23.25C10.5142 23.25 8.30542 22.4233 6.54875 21.0283ZM21.1317 19.1554C19.2846 16.9079 14.8025 16.1458 12.9167 16.1458C11.0308 16.1458 6.54875 16.9079 4.70167 19.1554C3.32947 17.365 2.58502 15.1725 2.58333 12.9167C2.58333 7.22042 7.22042 2.58333 12.9167 2.58333C18.6129 2.58333 23.25 7.22042 23.25 12.9167C23.25 15.2675 22.4492 17.4246 21.1317 19.1554V19.1554ZM12.9167 5.16667C10.4108 5.16667 8.39583 7.18167 8.39583 9.6875C8.39583 12.1933 10.4108 14.2083 12.9167 14.2083C15.4225 14.2083 17.4375 12.1933 17.4375 9.6875C17.4375 7.18167 15.4225 5.16667 12.9167 5.16667ZM12.9167 11.625C11.8446 11.625 10.9792 10.7596 10.9792 9.6875C10.9792 8.61542 11.8446 7.75 12.9167 7.75C13.9888 7.75 14.8542 8.61542 14.8542 9.6875C14.8542 10.7596 13.9888 11.625 12.9167 11.625Z" fill="#333333"/>
</svg>
