<svg width="18" height="18" viewBox="0 0 18 18" fill="none" xmlns="http://www.w3.org/2000/svg">
<path d="M17.0165 3.95167L14.0482 0.983332C13.6608 0.619436 13.1531 0.410637 12.6218 0.396655C12.0904 0.382673 11.5725 0.564482 11.1665 0.907499L1.4165 10.6575C1.06633 11.0106 0.848296 11.4735 0.799 11.9683L0.333166 16.4858C0.318573 16.6445 0.339162 16.8044 0.393466 16.9542C0.44777 17.1041 0.534452 17.24 0.647333 17.3525C0.74856 17.4529 0.868611 17.5323 1.0006 17.5863C1.13259 17.6402 1.27393 17.6675 1.4165 17.6667H1.514L6.0315 17.255C6.52636 17.2057 6.9892 16.9877 7.34233 16.6375L17.0923 6.8875C17.4708 6.48771 17.6753 5.95422 17.6611 5.40391C17.6468 4.85361 17.4151 4.33138 17.0165 3.95167V3.95167ZM5.8365 15.0883L2.5865 15.3917L2.879 12.1417L8.99983 6.09666L11.9248 9.02167L5.8365 15.0883ZM13.3332 7.57L10.4298 4.66667L12.5423 2.5L15.4998 5.4575L13.3332 7.57Z" fill="#AE956B"/>
</svg>
