<svg width="153" height="45" viewBox="0 0 153 45" fill="none" xmlns="http://www.w3.org/2000/svg">
<path d="M88.748 18.544C90.1347 18.544 91.3047 18.8907 92.258 19.584C93.2287 20.2773 93.9047 21.2047 94.286 22.366V18.726H96.652V33.234C96.652 34.5513 96.3747 35.7213 95.82 36.744C95.2653 37.7667 94.4853 38.564 93.48 39.136C92.4747 39.708 91.3047 39.994 89.97 39.994C88.046 39.994 86.4773 39.526 85.264 38.59C84.0507 37.6713 83.2793 36.4233 82.95 34.846H85.29C85.5673 35.7993 86.0873 36.5447 86.85 37.082C87.63 37.6367 88.6267 37.914 89.84 37.914C91.1227 37.914 92.18 37.498 93.012 36.666C93.8613 35.8513 94.286 34.7073 94.286 33.234V29.36C93.9047 30.5213 93.2287 31.4487 92.258 32.142C91.3047 32.8353 90.1347 33.182 88.748 33.182C87.4827 33.182 86.356 32.8873 85.368 32.298C84.38 31.7087 83.6 30.868 83.028 29.776C82.4733 28.6667 82.196 27.3667 82.196 25.876C82.196 24.3853 82.4733 23.0853 83.028 21.976C83.6 20.8667 84.38 20.0173 85.368 19.428C86.356 18.8387 87.4827 18.544 88.748 18.544ZM89.424 20.65C87.968 20.65 86.798 21.118 85.914 22.054C85.0473 22.9727 84.614 24.2467 84.614 25.876C84.614 27.5053 85.0473 28.788 85.914 29.724C86.798 30.6427 87.968 31.102 89.424 31.102C90.36 31.102 91.192 30.8853 91.92 30.452C92.6653 30.0187 93.246 29.412 93.662 28.632C94.078 27.8347 94.286 26.916 94.286 25.876C94.286 24.836 94.078 23.9173 93.662 23.12C93.246 22.3227 92.6653 21.716 91.92 21.3C91.192 20.8667 90.36 20.65 89.424 20.65ZM102.784 21.612C103.252 20.624 103.936 19.8613 104.838 19.324C105.739 18.7693 106.814 18.492 108.062 18.492V21.066H107.334C105.999 21.066 104.907 21.4127 104.058 22.106C103.208 22.782 102.784 23.9087 102.784 25.486V33H100.418V18.726H102.784V21.612ZM116.246 18.544C117.633 18.544 118.803 18.8907 119.756 19.584C120.727 20.2773 121.403 21.2047 121.784 22.366V18.726H124.15V33H121.784V29.36C121.403 30.5213 120.727 31.4487 119.756 32.142C118.803 32.8353 117.633 33.182 116.246 33.182C114.981 33.182 113.854 32.8873 112.866 32.298C111.878 31.7087 111.098 30.868 110.526 29.776C109.971 28.6667 109.694 27.3667 109.694 25.876C109.694 24.3853 109.971 23.0853 110.526 21.976C111.098 20.8667 111.878 20.0173 112.866 19.428C113.854 18.8387 114.981 18.544 116.246 18.544ZM116.922 20.65C115.466 20.65 114.296 21.118 113.412 22.054C112.545 22.9727 112.112 24.2467 112.112 25.876C112.112 27.5053 112.545 28.788 113.412 29.724C114.296 30.6427 115.466 31.102 116.922 31.102C117.858 31.102 118.69 30.8853 119.418 30.452C120.163 30.0187 120.744 29.412 121.16 28.632C121.576 27.8347 121.784 26.916 121.784 25.876C121.784 24.836 121.576 23.9173 121.16 23.12C120.744 22.3227 120.163 21.716 119.418 21.3C118.69 20.8667 117.858 20.65 116.922 20.65ZM145.466 18.492C147.13 18.492 148.464 19.0293 149.47 20.104C150.492 21.1613 151.004 22.6953 151.004 24.706V33H148.638V24.914C148.638 23.51 148.291 22.4353 147.598 21.69C146.922 20.9447 145.986 20.572 144.79 20.572C143.542 20.572 142.536 20.988 141.774 21.82C141.028 22.6347 140.656 23.8393 140.656 25.434V33H138.29V24.914C138.29 23.51 137.943 22.4353 137.25 21.69C136.556 20.9447 135.62 20.572 134.442 20.572C133.176 20.572 132.162 20.988 131.4 21.82C130.654 22.6347 130.282 23.8393 130.282 25.434V33H127.916V18.726H130.282V21.976C130.628 20.8493 131.244 19.9913 132.128 19.402C133.029 18.7953 134.06 18.492 135.222 18.492C136.435 18.492 137.484 18.804 138.368 19.428C139.269 20.0347 139.91 20.936 140.292 22.132C140.69 20.9707 141.358 20.078 142.294 19.454C143.23 18.8127 144.287 18.492 145.466 18.492Z" fill="#9A9A9A"/>
<path d="M11.46 11.58C14.16 11.58 16.39 12.29 18.15 13.71C19.93 15.13 21.08 17.05 21.6 19.47H16.17C15.77 18.49 15.15 17.72 14.31 17.16C13.49 16.6 12.51 16.32 11.37 16.32C9.87 16.32 8.66 16.87 7.74 17.97C6.82 19.07 6.36 20.54 6.36 22.38C6.36 24.22 6.82 25.69 7.74 26.79C8.66 27.87 9.87 28.41 11.37 28.41C12.51 28.41 13.49 28.13 14.31 27.57C15.15 27.01 15.77 26.25 16.17 25.29H21.6C21.08 27.69 19.93 29.61 18.15 31.05C16.39 32.47 14.16 33.18 11.46 33.18C9.4 33.18 7.59 32.73 6.03 31.83C4.47 30.91 3.26 29.63 2.4 27.99C1.56 26.35 1.14 24.48 1.14 22.38C1.14 20.28 1.56 18.41 2.4 16.77C3.26 15.13 4.47 13.86 6.03 12.96C7.59 12.04 9.4 11.58 11.46 11.58ZM37.6151 29.13H29.6651L28.3451 33H22.9451L30.7151 11.94H36.6251L44.3951 33H38.9351L37.6151 29.13ZM36.2951 25.23L33.6551 17.43L30.9851 25.23H36.2951ZM60.2191 11.79V15.87H51.5191V20.52H58.2391V24.42H51.5191V33H46.3891V11.79H60.2191ZM76.684 11.79V15.87H67.984V20.52H74.704V24.42H67.984V33H62.854V11.79H76.684Z" fill="url(#paint0_angular_2_500)"/>
<defs>
<radialGradient id="paint0_angular_2_500" cx="0" cy="0" r="1" gradientUnits="userSpaceOnUse" gradientTransform="translate(39 22.5) rotate(90) scale(22.5 39)">
<stop stop-color="#EC2024"/>
<stop offset="0.177083" stop-color="#F15A25"/>
<stop offset="0.4375" stop-color="#8CC63E"/>
<stop offset="0.661458" stop-color="#32ABE3"/>
<stop offset="1" stop-color="#EC2024"/>
</radialGradient>
</defs>
</svg>
